<svg width="800" height="600" xmlns="http://www.w3.org/2000/svg">
 <g>
  <title>Layer 1</title>
  <g id="svg_5">
   <path id="svg_3" stroke="#066da5" stroke-width="38" d="m452.31923,222.702l82.19027,0m-180.03583,0l82.19027,0m-178.07892,0l82.19027,0m-178.07892,0l80.23336,0m-178.07892,0l82.19027,0m15.65529,-90.01791l80.23336,0m15.65529,0l82.19027,0m13.69838,0l82.19027,0m-82.19027,-90.01791l82.19027,0"/>
   <path id="svg_4" fill="#066da5" d="m796.73559,226.61582s-35.2244,-33.26749 -107.63012,-21.52602c-7.82764,-56.75042 -68.49189,-90.01791 -68.49189,-90.01791s-56.75042,68.49189 -15.65529,144.81143c-11.74147,5.87073 -31.31058,13.69838 -60.66425,13.69838l-538.15058,0c-9.78456,37.18131 -9.78456,283.75212 260.26919,283.75212c193.73421,0 338.54564,-90.01791 407.03753,-254.39845c101.75938,7.82764 123.2854,-76.31954 123.2854,-76.31954"/>
  </g>
 </g>

</svg>